<svg width="16" height="16" viewBox="0 0 16 16" fill="none" xmlns="http://www.w3.org/2000/svg">
<g clip-path="url(#clip0_12_39)">
<rect width="16" height="16" fill="#042757"/>
<path d="M8.85973 10.2041L9.09137 10.2528L8.77656 11.7454H2.03526L1.95557 11.6736H2.31358C2.71606 11.6736 3.00387 11.5437 3.17703 11.2836C3.27531 11.1351 3.32444 10.7914 3.32444 10.2528V2.56051C3.32444 1.97081 3.25893 1.60166 3.12789 1.45308C2.94537 1.24877 2.67394 1.14662 2.31358 1.14662H1.95557V0.88892H5.63616V1.14662C5.13073 1.14198 4.77505 1.18841 4.56913 1.28592C4.3679 1.38343 4.22984 1.50648 4.15496 1.65506C4.08008 1.80365 4.04264 2.15886 4.04264 2.7207V10.2528C4.04264 10.6382 4.08008 10.9028 4.15496 11.0468C4.21112 11.1443 4.2977 11.2163 4.4147 11.2627C4.53169 11.3091 4.89673 11.3324 5.5098 11.3324H6.20477C6.93484 11.3324 7.44728 11.2789 7.74213 11.1722C8.03697 11.0654 8.30606 10.8773 8.54944 10.608C8.79277 10.3341 8.67162 10.4861 8.85973 10.2041Z" fill="white"/>
<path d="M12.1521 3.82721H15.4491V4.10782H15.2506C15.1184 4.10782 14.925 4.16596 14.6706 4.28225C14.4162 4.39854 14.1847 4.56539 13.9761 4.7828C13.7675 5.00021 13.5105 5.35413 13.2053 5.84456L10.7097 9.75034V14.2178C10.7097 14.8498 10.7809 15.2442 10.9233 15.4009C11.1167 15.6132 11.422 15.7194 11.8392 15.7194H12.175V16.0001H8.62998V15.7194H8.99631C9.43387 15.7194 9.74423 15.588 9.9274 15.3251C10.0393 15.1633 10.0953 14.7942 10.0953 14.2178V9.89444L7.45275 5.5867C7.11695 5.0811 6.88799 4.7651 6.76588 4.6387C6.64887 4.5123 6.4021 4.36062 6.0256 4.18366C5.92384 4.1331 5.77629 4.10782 5.58295 4.10782V3.82721H9.27486V4.10782H9.0459C8.80677 4.10782 8.58545 4.16344 8.38193 4.27467C8.1835 4.3859 8.08429 4.55275 8.08429 4.77522C8.08429 4.95723 8.23947 5.28587 8.54983 5.76114L10.7097 9.07536L12.7397 5.90523C13.045 5.42997 13.1977 5.07605 13.1977 4.84347C13.1977 4.7019 13.1595 4.5755 13.0832 4.46427C13.0119 4.35304 12.9077 4.26708 12.7702 4.20641C12.6329 4.14068 12.4268 4.10782 12.1521 4.10782V3.82721Z" fill="white"/>
</g>
<defs>
<clipPath id="clip0_12_39">
<rect width="16" height="16" fill="white"/>
</clipPath>
</defs>
</svg>
